<mxfile host="app.diagrams.net" modified="2024-02-18T18:04:42.468Z" agent="Mozilla/5.0 (Macintosh; Intel Mac OS X 10_15_7) AppleWebKit/537.36 (KHTML, like Gecko) Chrome/121.0.0.0 Safari/537.36" etag="cbaERG6TC699p8fX_6NT" version="23.1.5" type="github">
  <diagram name="Page-1" id="gn0uq_FHL4GH7iVwz3Jk">
    <mxGraphModel dx="1140" dy="761" grid="1" gridSize="10" guides="1" tooltips="1" connect="1" arrows="1" fold="1" page="1" pageScale="1" pageWidth="827" pageHeight="1169" math="0" shadow="0">
      <root>
        <mxCell id="0" />
        <mxCell id="1" parent="0" />
        <mxCell id="xEWYe0WlcGR3rtT7nl-Z-1" value="Deploy to PROD" style="rounded=0;whiteSpace=wrap;html=1;" parent="1" vertex="1">
          <mxGeometry x="670" y="310" width="140" height="60" as="geometry" />
        </mxCell>
        <mxCell id="xEWYe0WlcGR3rtT7nl-Z-2" value="DEV" style="rounded=0;whiteSpace=wrap;html=1;" parent="1" vertex="1">
          <mxGeometry x="70" y="80" width="120" height="60" as="geometry" />
        </mxCell>
        <mxCell id="xEWYe0WlcGR3rtT7nl-Z-3" value="GIT" style="rounded=0;whiteSpace=wrap;html=1;" parent="1" vertex="1">
          <mxGeometry x="280" y="80" width="120" height="60" as="geometry" />
        </mxCell>
        <mxCell id="xEWYe0WlcGR3rtT7nl-Z-4" value="Jenkins CI / CD" style="rounded=0;whiteSpace=wrap;html=1;" parent="1" vertex="1">
          <mxGeometry x="500" y="80" width="120" height="60" as="geometry" />
        </mxCell>
        <mxCell id="xEWYe0WlcGR3rtT7nl-Z-5" value="Jenkins check:&lt;br&gt;Is master?" style="rhombus;whiteSpace=wrap;html=1;" parent="1" vertex="1">
          <mxGeometry x="670" y="185" width="140" height="90" as="geometry" />
        </mxCell>
        <mxCell id="xEWYe0WlcGR3rtT7nl-Z-6" value="Webhook" style="rounded=0;whiteSpace=wrap;html=1;" parent="1" vertex="1">
          <mxGeometry x="500" y="310" width="120" height="60" as="geometry" />
        </mxCell>
        <mxCell id="xEWYe0WlcGR3rtT7nl-Z-7" value="Push to repo" style="rounded=0;whiteSpace=wrap;html=1;" parent="1" vertex="1">
          <mxGeometry x="160" y="200" width="150" height="60" as="geometry" />
        </mxCell>
        <mxCell id="xEWYe0WlcGR3rtT7nl-Z-8" value="Git check:&lt;br&gt;Is master?" style="rhombus;whiteSpace=wrap;html=1;" parent="1" vertex="1">
          <mxGeometry x="315" y="290" width="130" height="100" as="geometry" />
        </mxCell>
        <mxCell id="xEWYe0WlcGR3rtT7nl-Z-53" value="" style="edgeStyle=orthogonalEdgeStyle;rounded=0;orthogonalLoop=1;jettySize=auto;html=1;" parent="1" edge="1">
          <mxGeometry relative="1" as="geometry">
            <mxPoint x="200" y="445" as="sourcePoint" />
            <mxPoint x="200" y="420" as="targetPoint" />
          </mxGeometry>
        </mxCell>
        <mxCell id="xEWYe0WlcGR3rtT7nl-Z-9" value="Block direct push to master.&amp;nbsp;&lt;br&gt;Need to create a PR." style="rounded=0;whiteSpace=wrap;html=1;" parent="1" vertex="1">
          <mxGeometry x="110" y="445" width="170" height="50" as="geometry" />
        </mxCell>
        <mxCell id="xEWYe0WlcGR3rtT7nl-Z-10" value="Push Request?" style="rhombus;whiteSpace=wrap;html=1;" parent="1" vertex="1">
          <mxGeometry x="320" y="430" width="120" height="80" as="geometry" />
        </mxCell>
        <mxCell id="xEWYe0WlcGR3rtT7nl-Z-11" value="Create PR" style="rounded=0;whiteSpace=wrap;html=1;" parent="1" vertex="1">
          <mxGeometry x="110" y="390" width="170" height="30" as="geometry" />
        </mxCell>
        <mxCell id="xEWYe0WlcGR3rtT7nl-Z-12" value="Create pipeline in Jenkins" style="rounded=0;whiteSpace=wrap;html=1;" parent="1" vertex="1">
          <mxGeometry x="665" y="80" width="150" height="60" as="geometry" />
        </mxCell>
        <mxCell id="xEWYe0WlcGR3rtT7nl-Z-13" value="Approved?" style="rhombus;whiteSpace=wrap;html=1;" parent="1" vertex="1">
          <mxGeometry x="320" y="550" width="120" height="80" as="geometry" />
        </mxCell>
        <mxCell id="xEWYe0WlcGR3rtT7nl-Z-14" value="Ask for approval&amp;nbsp;&lt;br&gt;or&lt;br&gt;Wait for code owners" style="rounded=0;whiteSpace=wrap;html=1;" parent="1" vertex="1">
          <mxGeometry x="320" y="680" width="120" height="50" as="geometry" />
        </mxCell>
        <mxCell id="xEWYe0WlcGR3rtT7nl-Z-15" value="" style="endArrow=classic;html=1;rounded=0;entryX=0.5;entryY=0;entryDx=0;entryDy=0;" parent="1" target="xEWYe0WlcGR3rtT7nl-Z-8" edge="1">
          <mxGeometry width="50" height="50" relative="1" as="geometry">
            <mxPoint x="380" y="140" as="sourcePoint" />
            <mxPoint x="440" y="170" as="targetPoint" />
          </mxGeometry>
        </mxCell>
        <mxCell id="xEWYe0WlcGR3rtT7nl-Z-16" value="" style="endArrow=classic;html=1;rounded=0;entryX=0.066;entryY=-0.025;entryDx=0;entryDy=0;entryPerimeter=0;" parent="1" target="xEWYe0WlcGR3rtT7nl-Z-7" edge="1">
          <mxGeometry width="50" height="50" relative="1" as="geometry">
            <mxPoint x="170" y="140" as="sourcePoint" />
            <mxPoint x="480" y="170" as="targetPoint" />
          </mxGeometry>
        </mxCell>
        <mxCell id="xEWYe0WlcGR3rtT7nl-Z-17" value="" style="endArrow=classic;html=1;rounded=0;" parent="1" edge="1">
          <mxGeometry width="50" height="50" relative="1" as="geometry">
            <mxPoint x="300" y="200" as="sourcePoint" />
            <mxPoint x="300" y="140" as="targetPoint" />
          </mxGeometry>
        </mxCell>
        <mxCell id="xEWYe0WlcGR3rtT7nl-Z-18" value="" style="endArrow=classic;html=1;rounded=0;entryX=0.5;entryY=1;entryDx=0;entryDy=0;exitX=0.364;exitY=0;exitDx=0;exitDy=0;exitPerimeter=0;" parent="1" target="xEWYe0WlcGR3rtT7nl-Z-4" edge="1">
          <mxGeometry width="50" height="50" relative="1" as="geometry">
            <mxPoint x="559.62" y="310" as="sourcePoint" />
            <mxPoint x="559.58" y="170" as="targetPoint" />
          </mxGeometry>
        </mxCell>
        <mxCell id="xEWYe0WlcGR3rtT7nl-Z-19" value="Get code" style="html=1;verticalAlign=bottom;endArrow=open;dashed=1;endSize=8;curved=0;rounded=0;exitX=-0.01;exitY=0.344;exitDx=0;exitDy=0;exitPerimeter=0;" parent="1" source="xEWYe0WlcGR3rtT7nl-Z-4" edge="1">
          <mxGeometry relative="1" as="geometry">
            <mxPoint x="485" y="100" as="sourcePoint" />
            <mxPoint x="400" y="100" as="targetPoint" />
          </mxGeometry>
        </mxCell>
        <mxCell id="xEWYe0WlcGR3rtT7nl-Z-23" value="" style="endArrow=classic;html=1;rounded=0;entryX=0.5;entryY=0;entryDx=0;entryDy=0;exitX=0.5;exitY=1;exitDx=0;exitDy=0;" parent="1" target="xEWYe0WlcGR3rtT7nl-Z-10" edge="1">
          <mxGeometry width="50" height="50" relative="1" as="geometry">
            <mxPoint x="380" y="390" as="sourcePoint" />
            <mxPoint x="405" y="370" as="targetPoint" />
          </mxGeometry>
        </mxCell>
        <mxCell id="xEWYe0WlcGR3rtT7nl-Z-56" value="yes" style="edgeLabel;html=1;align=center;verticalAlign=middle;resizable=0;points=[];" parent="xEWYe0WlcGR3rtT7nl-Z-23" vertex="1" connectable="0">
          <mxGeometry x="-0.3071" y="-1" relative="1" as="geometry">
            <mxPoint as="offset" />
          </mxGeometry>
        </mxCell>
        <mxCell id="xEWYe0WlcGR3rtT7nl-Z-24" value="" style="endArrow=classic;html=1;rounded=0;exitX=0;exitY=0.5;exitDx=0;exitDy=0;entryX=1;entryY=0.5;entryDx=0;entryDy=0;" parent="1" source="xEWYe0WlcGR3rtT7nl-Z-10" target="xEWYe0WlcGR3rtT7nl-Z-9" edge="1">
          <mxGeometry width="50" height="50" relative="1" as="geometry">
            <mxPoint x="300" y="470" as="sourcePoint" />
            <mxPoint x="350" y="420" as="targetPoint" />
          </mxGeometry>
        </mxCell>
        <mxCell id="xEWYe0WlcGR3rtT7nl-Z-57" value="no" style="edgeLabel;html=1;align=center;verticalAlign=middle;resizable=0;points=[];" parent="xEWYe0WlcGR3rtT7nl-Z-24" vertex="1" connectable="0">
          <mxGeometry x="-0.45" y="1" relative="1" as="geometry">
            <mxPoint x="1" y="-11" as="offset" />
          </mxGeometry>
        </mxCell>
        <mxCell id="xEWYe0WlcGR3rtT7nl-Z-26" value="" style="endArrow=classic;html=1;rounded=0;entryX=0;entryY=0.5;entryDx=0;entryDy=0;" parent="1" edge="1">
          <mxGeometry width="50" height="50" relative="1" as="geometry">
            <mxPoint x="200" y="340" as="sourcePoint" />
            <mxPoint x="315" y="340" as="targetPoint" />
          </mxGeometry>
        </mxCell>
        <mxCell id="xEWYe0WlcGR3rtT7nl-Z-27" value="" style="endArrow=none;html=1;rounded=0;" parent="1" edge="1">
          <mxGeometry width="50" height="50" relative="1" as="geometry">
            <mxPoint x="200" y="390" as="sourcePoint" />
            <mxPoint x="200" y="340" as="targetPoint" />
          </mxGeometry>
        </mxCell>
        <mxCell id="xEWYe0WlcGR3rtT7nl-Z-28" value="" style="endArrow=classic;html=1;rounded=0;entryX=0.5;entryY=-0.042;entryDx=0;entryDy=0;entryPerimeter=0;exitX=0.5;exitY=1;exitDx=0;exitDy=0;" parent="1" source="xEWYe0WlcGR3rtT7nl-Z-10" target="xEWYe0WlcGR3rtT7nl-Z-13" edge="1">
          <mxGeometry width="50" height="50" relative="1" as="geometry">
            <mxPoint x="200" y="540" as="sourcePoint" />
            <mxPoint x="250" y="490" as="targetPoint" />
          </mxGeometry>
        </mxCell>
        <mxCell id="xEWYe0WlcGR3rtT7nl-Z-58" value="yes" style="edgeLabel;html=1;align=center;verticalAlign=middle;resizable=0;points=[];" parent="xEWYe0WlcGR3rtT7nl-Z-28" vertex="1" connectable="0">
          <mxGeometry x="-0.7115" y="2" relative="1" as="geometry">
            <mxPoint x="-2" y="5" as="offset" />
          </mxGeometry>
        </mxCell>
        <mxCell id="xEWYe0WlcGR3rtT7nl-Z-29" value="" style="endArrow=classic;html=1;rounded=0;exitX=0.5;exitY=1;exitDx=0;exitDy=0;entryX=0.5;entryY=0;entryDx=0;entryDy=0;" parent="1" source="xEWYe0WlcGR3rtT7nl-Z-13" target="xEWYe0WlcGR3rtT7nl-Z-14" edge="1">
          <mxGeometry width="50" height="50" relative="1" as="geometry">
            <mxPoint x="370" y="710" as="sourcePoint" />
            <mxPoint x="420" y="660" as="targetPoint" />
          </mxGeometry>
        </mxCell>
        <mxCell id="xEWYe0WlcGR3rtT7nl-Z-59" value="no" style="edgeLabel;html=1;align=center;verticalAlign=middle;resizable=0;points=[];" parent="xEWYe0WlcGR3rtT7nl-Z-29" vertex="1" connectable="0">
          <mxGeometry x="-0.3314" y="3" relative="1" as="geometry">
            <mxPoint x="-3" y="3" as="offset" />
          </mxGeometry>
        </mxCell>
        <mxCell id="xEWYe0WlcGR3rtT7nl-Z-30" value="" style="endArrow=classic;html=1;rounded=0;" parent="1" edge="1">
          <mxGeometry width="50" height="50" relative="1" as="geometry">
            <mxPoint x="260" y="590" as="sourcePoint" />
            <mxPoint x="320" y="589.71" as="targetPoint" />
          </mxGeometry>
        </mxCell>
        <mxCell id="xEWYe0WlcGR3rtT7nl-Z-31" value="" style="endArrow=none;html=1;rounded=0;" parent="1" edge="1">
          <mxGeometry width="50" height="50" relative="1" as="geometry">
            <mxPoint x="260" y="700" as="sourcePoint" />
            <mxPoint x="260" y="590" as="targetPoint" />
          </mxGeometry>
        </mxCell>
        <mxCell id="xEWYe0WlcGR3rtT7nl-Z-32" value="" style="endArrow=none;html=1;rounded=0;entryX=-0.014;entryY=0.409;entryDx=0;entryDy=0;entryPerimeter=0;" parent="1" target="xEWYe0WlcGR3rtT7nl-Z-14" edge="1">
          <mxGeometry width="50" height="50" relative="1" as="geometry">
            <mxPoint x="260" y="700" as="sourcePoint" />
            <mxPoint x="310" y="700" as="targetPoint" />
          </mxGeometry>
        </mxCell>
        <mxCell id="xEWYe0WlcGR3rtT7nl-Z-33" value="" style="endArrow=classic;html=1;rounded=0;entryX=0;entryY=0.5;entryDx=0;entryDy=0;exitX=1;exitY=0.5;exitDx=0;exitDy=0;" parent="1" source="xEWYe0WlcGR3rtT7nl-Z-8" target="xEWYe0WlcGR3rtT7nl-Z-6" edge="1">
          <mxGeometry width="50" height="50" relative="1" as="geometry">
            <mxPoint x="410" y="310" as="sourcePoint" />
            <mxPoint x="460" y="260" as="targetPoint" />
          </mxGeometry>
        </mxCell>
        <mxCell id="xEWYe0WlcGR3rtT7nl-Z-55" value="no" style="edgeLabel;html=1;align=center;verticalAlign=middle;resizable=0;points=[];" parent="xEWYe0WlcGR3rtT7nl-Z-33" vertex="1" connectable="0">
          <mxGeometry x="-0.1792" y="3" relative="1" as="geometry">
            <mxPoint x="2" y="-7" as="offset" />
          </mxGeometry>
        </mxCell>
        <mxCell id="xEWYe0WlcGR3rtT7nl-Z-34" value="" style="endArrow=classic;html=1;rounded=0;entryX=0.5;entryY=1;entryDx=0;entryDy=0;" parent="1" target="xEWYe0WlcGR3rtT7nl-Z-6" edge="1">
          <mxGeometry width="50" height="50" relative="1" as="geometry">
            <mxPoint x="560" y="590" as="sourcePoint" />
            <mxPoint x="570" y="340" as="targetPoint" />
          </mxGeometry>
        </mxCell>
        <mxCell id="xEWYe0WlcGR3rtT7nl-Z-35" value="" style="endArrow=none;html=1;rounded=0;exitX=1;exitY=0.5;exitDx=0;exitDy=0;" parent="1" source="xEWYe0WlcGR3rtT7nl-Z-13" edge="1">
          <mxGeometry width="50" height="50" relative="1" as="geometry">
            <mxPoint x="440" y="590" as="sourcePoint" />
            <mxPoint x="560" y="590" as="targetPoint" />
          </mxGeometry>
        </mxCell>
        <mxCell id="xEWYe0WlcGR3rtT7nl-Z-60" value="yes" style="edgeLabel;html=1;align=center;verticalAlign=middle;resizable=0;points=[];" parent="xEWYe0WlcGR3rtT7nl-Z-35" vertex="1" connectable="0">
          <mxGeometry x="0.0548" y="-1" relative="1" as="geometry">
            <mxPoint x="-3" y="-11" as="offset" />
          </mxGeometry>
        </mxCell>
        <mxCell id="xEWYe0WlcGR3rtT7nl-Z-36" value="" style="endArrow=classic;html=1;rounded=0;entryX=0;entryY=0.5;entryDx=0;entryDy=0;exitX=1;exitY=0.5;exitDx=0;exitDy=0;" parent="1" source="xEWYe0WlcGR3rtT7nl-Z-4" target="xEWYe0WlcGR3rtT7nl-Z-12" edge="1">
          <mxGeometry width="50" height="50" relative="1" as="geometry">
            <mxPoint x="620" y="100" as="sourcePoint" />
            <mxPoint x="660" y="100" as="targetPoint" />
          </mxGeometry>
        </mxCell>
        <mxCell id="xEWYe0WlcGR3rtT7nl-Z-37" value="" style="endArrow=classic;html=1;rounded=0;entryX=0.5;entryY=0;entryDx=0;entryDy=0;" parent="1" target="xEWYe0WlcGR3rtT7nl-Z-5" edge="1">
          <mxGeometry width="50" height="50" relative="1" as="geometry">
            <mxPoint x="739.5" y="140" as="sourcePoint" />
            <mxPoint x="740" y="180" as="targetPoint" />
          </mxGeometry>
        </mxCell>
        <mxCell id="xEWYe0WlcGR3rtT7nl-Z-39" value="" style="ellipse;html=1;shape=endState;fillColor=#000000;strokeColor=#ff0000;" parent="1" vertex="1">
          <mxGeometry x="713.75" y="440" width="52.5" height="50" as="geometry" />
        </mxCell>
        <mxCell id="xEWYe0WlcGR3rtT7nl-Z-40" value="" style="endArrow=none;html=1;rounded=0;" parent="1" edge="1">
          <mxGeometry width="50" height="50" relative="1" as="geometry">
            <mxPoint x="860" y="229.86" as="sourcePoint" />
            <mxPoint x="820" y="229.86" as="targetPoint" />
            <Array as="points">
              <mxPoint x="810" y="229.86" />
            </Array>
          </mxGeometry>
        </mxCell>
        <mxCell id="xEWYe0WlcGR3rtT7nl-Z-42" value="" style="endArrow=none;html=1;rounded=0;" parent="1" edge="1">
          <mxGeometry width="50" height="50" relative="1" as="geometry">
            <mxPoint x="860" y="465" as="sourcePoint" />
            <mxPoint x="860" y="230" as="targetPoint" />
          </mxGeometry>
        </mxCell>
        <mxCell id="xEWYe0WlcGR3rtT7nl-Z-61" value="no" style="edgeLabel;html=1;align=center;verticalAlign=middle;resizable=0;points=[];" parent="xEWYe0WlcGR3rtT7nl-Z-42" vertex="1" connectable="0">
          <mxGeometry x="0.0936" relative="1" as="geometry">
            <mxPoint x="1" as="offset" />
          </mxGeometry>
        </mxCell>
        <mxCell id="xEWYe0WlcGR3rtT7nl-Z-43" value="" style="endArrow=classic;html=1;rounded=0;entryX=0.5;entryY=0;entryDx=0;entryDy=0;exitX=0.467;exitY=1.02;exitDx=0;exitDy=0;exitPerimeter=0;" parent="1" edge="1">
          <mxGeometry width="50" height="50" relative="1" as="geometry">
            <mxPoint x="739.5699999999999" y="371.20000000000005" as="sourcePoint" />
            <mxPoint x="740.44" y="440" as="targetPoint" />
          </mxGeometry>
        </mxCell>
        <mxCell id="xEWYe0WlcGR3rtT7nl-Z-44" value="" style="endArrow=classic;html=1;rounded=0;entryX=1;entryY=0.5;entryDx=0;entryDy=0;" parent="1" target="xEWYe0WlcGR3rtT7nl-Z-39" edge="1">
          <mxGeometry width="50" height="50" relative="1" as="geometry">
            <mxPoint x="860" y="465" as="sourcePoint" />
            <mxPoint x="770" y="465" as="targetPoint" />
          </mxGeometry>
        </mxCell>
        <mxCell id="xEWYe0WlcGR3rtT7nl-Z-45" value="" style="endArrow=classic;html=1;rounded=0;entryX=0.5;entryY=0;entryDx=0;entryDy=0;exitX=0.5;exitY=1;exitDx=0;exitDy=0;" parent="1" source="xEWYe0WlcGR3rtT7nl-Z-5" target="xEWYe0WlcGR3rtT7nl-Z-1" edge="1">
          <mxGeometry width="50" height="50" relative="1" as="geometry">
            <mxPoint x="790" y="260" as="sourcePoint" />
            <mxPoint x="840" y="210" as="targetPoint" />
          </mxGeometry>
        </mxCell>
        <mxCell id="xEWYe0WlcGR3rtT7nl-Z-62" value="yes" style="edgeLabel;html=1;align=center;verticalAlign=middle;resizable=0;points=[];" parent="xEWYe0WlcGR3rtT7nl-Z-45" vertex="1" connectable="0">
          <mxGeometry x="-0.2286" y="2" relative="1" as="geometry">
            <mxPoint y="1" as="offset" />
          </mxGeometry>
        </mxCell>
        <mxCell id="xEWYe0WlcGR3rtT7nl-Z-48" value="" style="endArrow=none;html=1;rounded=0;" parent="1" edge="1">
          <mxGeometry width="50" height="50" relative="1" as="geometry">
            <mxPoint x="190" y="110" as="sourcePoint" />
            <mxPoint x="230" y="110" as="targetPoint" />
          </mxGeometry>
        </mxCell>
        <mxCell id="xEWYe0WlcGR3rtT7nl-Z-49" value="" style="endArrow=none;html=1;rounded=0;" parent="1" edge="1">
          <mxGeometry width="50" height="50" relative="1" as="geometry">
            <mxPoint x="230" y="110" as="sourcePoint" />
            <mxPoint x="230" y="40" as="targetPoint" />
          </mxGeometry>
        </mxCell>
        <mxCell id="xEWYe0WlcGR3rtT7nl-Z-52" value="Commit" style="edgeLabel;html=1;align=center;verticalAlign=middle;resizable=0;points=[];" parent="xEWYe0WlcGR3rtT7nl-Z-49" vertex="1" connectable="0">
          <mxGeometry x="0.5878" y="2" relative="1" as="geometry">
            <mxPoint y="16" as="offset" />
          </mxGeometry>
        </mxCell>
        <mxCell id="xEWYe0WlcGR3rtT7nl-Z-50" value="" style="endArrow=none;html=1;rounded=0;" parent="1" edge="1">
          <mxGeometry width="50" height="50" relative="1" as="geometry">
            <mxPoint x="180" y="40" as="sourcePoint" />
            <mxPoint x="230" y="40" as="targetPoint" />
          </mxGeometry>
        </mxCell>
        <mxCell id="xEWYe0WlcGR3rtT7nl-Z-51" value="" style="endArrow=classic;html=1;rounded=0;entryX=0.914;entryY=0.002;entryDx=0;entryDy=0;entryPerimeter=0;" parent="1" target="xEWYe0WlcGR3rtT7nl-Z-2" edge="1">
          <mxGeometry width="50" height="50" relative="1" as="geometry">
            <mxPoint x="180" y="40" as="sourcePoint" />
            <mxPoint x="240" y="130" as="targetPoint" />
          </mxGeometry>
        </mxCell>
      </root>
    </mxGraphModel>
  </diagram>
</mxfile>
